# xmcd
#
# Track frame offsets:
#	182
#	19537
#	35182
#	53020
#	71990
#	88457
#	103885
#	128785
#	147750
#	161492
#	175592
#	195027
#	219760
#	239017
#	256930
#	271055
#	288437
#	307122
#
# Disc length: 4403 seconds
#
# Revision: 2
# Processed by: cddbd v1.5.2PL0 Copyright (c) Steve Scherf et al.
# Submitted via: audiograbber 1.83.01
#
DISCID=04113112
DTITLE=72 Soul Classics - 72 Soul Classics - CD 2
DYEAR=1983
DGENRE=Soul
TTITLE0=Jermaine Jackson - Do What You Do
TTITLE1=Dionne Warwick - All the Love in the World
TTITLE2=Kool and The Gang - Joanna
TTITLE3=Shalamar - A Night to Remember
TTITLE4=Sade - Your Love Is King
TTITLE5=Stephanie Mills - Never Knew Love Like This Before
TTITLE6=Alantic Starr - Secret Lovers
TTITLE7=Jeffrey Osborne - Stay With Me Tonight
TTITLE8=The Drifters - There Goes My First Love
TTITLE9=Gloria Gaynor - Reach Out I'll Be There
TTITLE10=Quincy Jones - One Hundred Ways
TTITLE11=The Stylistics - You Make Me Feel Brand New
TTITLE12=Barry White - Never, Never Gonna Give You Up
TTITLE13=The Three Degrees - Woman in Love
TTITLE14=The Isley Brothers - Summer Breeze
TTITLE15=Marvin Gaye - My Love Is Waiting
TTITLE16=Bill Withers - Lovely Day
TTITLE17=Aretha Franklin - What a Fool Believes
EXTD=
EXTT0=
EXTT1=
EXTT2=
EXTT3=
EXTT4=
EXTT5=
EXTT6=
EXTT7=
EXTT8=
EXTT9=
EXTT10=
EXTT11=
EXTT12=
EXTT13=
EXTT14=
EXTT15=
EXTT16=
EXTT17=
PLAYORDER=
